# xmcd CD database file
#
# Track frame offsets:
#	150
#	18715
#	39337
#	57795
#	77662
#	97507
#	114332
#	129807
#	151242
#	173650
#	185355
#	200422
#	217537
#	243097
#	266545
#	290507
#	311650
#
# Disc length: 4390 seconds
#
# Revision: 0
# Processed by: cddbd v1.5.2PL0 Copyright (c) Steve Scherf et al.
# Submitted via: CDex 1.51
#
DISCID=ca112411
DTITLE=sky high - Fuzzface
DYEAR=1994
DGENRE=Blues
TTITLE0=Shake up the house
TTITLE1=Sisters and brothers
TTITLE2=Running in my walkin shoes
TTITLE3=Flowerchild
TTITLE4=Heavensent
TTITLE5=Stop the wars
TTITLE6=Passing thru
TTITLE7=Empty visions
TTITLE8=Real man
TTITLE9=Freddies shuffle
TTITLE10=Hold that note
TTITLE11=Rivers run dry
TTITLE12=Gone for good
TTITLE13=Rise of the underdog
TTITLE14=Once again
TTITLE15=Emptyvision
TTITLE16=Flowerchild
EXTD=YEAR: 1994
EXTT0=
EXTT1=
EXTT2=
EXTT3=
EXTT4=
EXTT5=
EXTT6=
EXTT7=
EXTT8=
EXTT9=
EXTT10=
EXTT11=
EXTT12=
EXTT13=
EXTT14=
EXTT15=
EXTT16=
PLAYORDER=
